<?xml version="1.0" standalone="no"?><!DOCTYPE svg PUBLIC "-//W3C//DTD SVG 1.1//EN" "http://www.w3.org/Graphics/SVG/1.1/DTD/svg11.dtd"><svg t="1622984914397" class="icon" viewBox="0 0 1024 1024" version="1.1" xmlns="http://www.w3.org/2000/svg" p-id="1480" width="40" height="40" xmlns:xlink="http://www.w3.org/1999/xlink"><defs><style type="text/css"></style></defs><path d="M860.16 184.32a81.92 81.92 0 0 0-81.92-81.92H245.76a81.92 81.92 0 0 0-81.92 81.92L81.92 839.68a81.92 81.92 0 0 0 81.92 81.92h696.32a81.92 81.92 0 0 0 81.92-81.92z m0 696.32H163.84a40.96 40.96 0 0 1-40.96-40.96l81.92-655.36a40.96 40.96 0 0 1 40.96-40.96h532.48a40.96 40.96 0 0 1 40.96 40.96l81.92 655.36a40.96 40.96 0 0 1-40.96 40.96z" p-id="1481"></path><path d="M348.16 245.76v-20.48h-40.96v40.96h42.3936a163.84 163.84 0 0 1-1.4336-20.48zM675.84 225.28v20.48a163.84 163.84 0 0 1-315.5968 61.44h-48.3328A184.32 184.32 0 0 0 491.52 450.56h40.96a184.32 184.32 0 0 0 184.32-184.32v-40.96z" p-id="1482"></path></svg>
